<svg width="32" height="33" viewBox="0 0 32 33" fill="none" xmlns="http://www.w3.org/2000/svg">
<path d="M15.9976 8.03327C11.4572 8.03327 7.79499 11.6963 7.79499 16.2377C7.79499 20.779 11.4572 24.4421 15.9976 24.4421C20.5379 24.4421 24.2001 20.779 24.2001 16.2377C24.2001 11.6963 20.5379 8.03327 15.9976 8.03327ZM15.9976 21.5716C13.0635 21.5716 10.6648 19.1795 10.6648 16.2377C10.6648 13.2958 13.0563 10.9037 15.9976 10.9037C18.9388 10.9037 21.3303 13.2958 21.3303 16.2377C21.3303 19.1795 18.9316 21.5716 15.9976 21.5716V21.5716ZM26.4489 7.69767C26.4489 8.7616 25.5922 9.61132 24.5357 9.61132C23.472 9.61132 22.6224 8.75446 22.6224 7.69767C22.6224 6.64088 23.4791 5.78403 24.5357 5.78403C25.5922 5.78403 26.4489 6.64088 26.4489 7.69767ZM31.8816 9.63988C31.7602 7.07645 31.1748 4.80578 29.2973 2.93498C27.4269 1.06418 25.1567 0.478662 22.5939 0.350133C19.9525 0.200183 12.0355 0.200183 9.3941 0.350133C6.83838 0.471521 4.56822 1.05704 2.6907 2.92784C0.813174 4.79864 0.234925 7.06931 0.106425 9.63274C-0.043491 12.2747 -0.043491 20.1935 0.106425 22.8355C0.227786 25.3989 0.813174 27.6696 2.6907 29.5404C4.56822 31.4112 6.83124 31.9967 9.3941 32.1252C12.0355 32.2752 19.9525 32.2752 22.5939 32.1252C25.1567 32.0038 27.4269 31.4183 29.2973 29.5404C31.1677 27.6696 31.7531 25.3989 31.8816 22.8355C32.0315 20.1935 32.0315 12.2819 31.8816 9.63988V9.63988ZM28.4692 25.6702C27.9123 27.0698 26.8344 28.148 25.428 28.7121C23.322 29.5475 18.3248 29.3547 15.9976 29.3547C13.6703 29.3547 8.66593 29.5404 6.56711 28.7121C5.16789 28.1551 4.08992 27.0769 3.52595 25.6702C2.6907 23.5638 2.88345 18.5655 2.88345 16.2377C2.88345 13.9099 2.69784 8.90441 3.52595 6.80511C4.08278 5.40558 5.16075 4.32737 6.56711 3.76328C8.67307 2.92784 13.6703 3.12063 15.9976 3.12063C18.3248 3.12063 23.3292 2.93498 25.428 3.76328C26.8272 4.32023 27.9052 5.39844 28.4692 6.80511C29.3044 8.91155 29.1117 13.9099 29.1117 16.2377C29.1117 18.5655 29.3044 23.5709 28.4692 25.6702Z" fill="#005075"/>
</svg>
